<svg width="152" height="42" viewBox="0 0 152 42" fill="none" xmlns="http://www.w3.org/2000/svg">
<path d="M30.4471 11.4773C30.1784 11.3934 29.8929 11.3262 29.5989 11.2675L29.4058 11.2255C29.3442 11.2143 29.2798 11.2031 29.2126 11.1919C29.1454 11.1807 29.0783 11.1695 29.0111 11.1584C28.7759 11.1248 28.5352 11.0968 28.2888 11.0744C28.0425 11.052 27.7906 11.0381 27.533 11.0325C27.5274 11.0325 27.5218 11.0325 27.5162 11.0325C27.505 11.0325 27.4938 11.0297 27.4826 11.0241C27.0207 10.0504 26.3657 9.29502 25.5511 8.548C25.0808 8.11994 24.5685 7.70026 24.031 7.25541C22.9561 6.36571 21.7635 5.39207 20.6382 4.09109C19.5129 5.39207 18.3287 6.36571 17.2454 7.24702C15.7169 8.50603 14.5076 9.50485 13.7938 11.0241V11.0325C13.7686 11.0828 13.3823 11.8718 13.1387 13.7016V13.71C13.1387 13.7156 13.1387 13.7212 13.1387 13.7267C13.1275 13.8666 13.1191 14.0093 13.1135 14.1548C13.1079 14.222 13.1051 14.2891 13.1051 14.3563C13.1051 14.4514 13.1051 14.5493 13.1051 14.65C13.1051 14.7116 13.1051 14.7759 13.1051 14.8431C13.1051 14.9046 13.1051 14.9662 13.1051 15.0277C13.1107 15.1005 13.1135 15.1704 13.1135 15.2376C13.1191 15.3047 13.1247 15.3719 13.1303 15.439C13.1303 15.5173 13.1359 15.5985 13.1471 15.6824C13.1527 15.7552 13.1583 15.8279 13.1639 15.9006C13.1695 15.9062 13.1723 15.9118 13.1723 15.9174C13.1779 15.9958 13.1863 16.0741 13.1975 16.1524C13.2143 16.2811 13.2339 16.4098 13.2563 16.5385C13.2731 16.6281 13.2899 16.712 13.3067 16.7903C13.3179 16.8463 13.3291 16.8967 13.3403 16.9414C13.3459 16.9582 13.3487 16.9722 13.3487 16.9834C13.3599 17.0394 13.3767 17.0981 13.3991 17.1597C13.4159 17.2324 13.4355 17.3051 13.4579 17.3779C13.4803 17.4618 13.5054 17.543 13.5334 17.6213C13.5614 17.7164 13.595 17.806 13.6342 17.8899C13.7014 18.0801 13.7798 18.2592 13.8694 18.4271C13.903 18.4942 13.9365 18.5614 13.9701 18.6285C14.0037 18.6901 14.0401 18.7488 14.0793 18.8048C14.0793 18.8104 14.0821 18.816 14.0877 18.8216C14.1269 18.8887 14.1661 18.9531 14.2053 19.0146C13.8946 19.3084 13.6174 19.5854 13.3907 19.8204C13.3739 19.8372 13.3571 19.854 13.3319 19.8791C13.2899 19.9211 13.2479 19.9715 13.1975 20.0134C13.1723 20.0386 13.1555 20.0638 13.1303 20.0974C13.1247 20.103 13.1163 20.1085 13.1051 20.1141C12.8364 20.4051 12.5901 20.6989 12.3661 20.9955C12.3437 20.9675 12.3213 20.9395 12.2989 20.9115C12.2653 20.8612 12.2289 20.8108 12.1898 20.7604C12.1674 20.7213 12.1422 20.6849 12.1142 20.6513C12.0806 20.601 12.047 20.5506 12.0134 20.5002C11.8678 20.2708 11.7307 20.0386 11.6019 19.8036C11.5683 19.7448 11.5431 19.6861 11.5095 19.6273C11.4759 19.5546 11.4423 19.4818 11.4087 19.4091C11.3863 19.3643 11.3639 19.3168 11.3415 19.2664C11.3359 19.2664 11.3332 19.2664 11.3332 19.2664C11.2828 19.1545 11.2352 19.0398 11.1904 18.9223C11.1792 18.8999 11.1708 18.8775 11.1652 18.8551C11.1428 18.7936 11.1204 18.732 11.098 18.6705C11.042 18.525 10.9888 18.3767 10.9384 18.2256C10.9216 18.1697 10.9076 18.1165 10.8965 18.0661C10.8685 17.9822 10.8433 17.8955 10.8209 17.806C10.8097 17.7668 10.7985 17.7276 10.7873 17.6884C10.7593 17.5709 10.7341 17.4562 10.7117 17.3443C10.7061 17.3219 10.7005 17.2996 10.6949 17.2772C10.6725 17.1597 10.6501 17.0366 10.6277 16.9079C10.6053 16.768 10.5829 16.6253 10.5605 16.4798C10.5437 16.3511 10.5297 16.2224 10.5185 16.0937C10.5129 16.0657 10.5101 16.0405 10.5101 16.0182C10.4989 15.8895 10.4877 15.758 10.4765 15.6237C10.4709 15.4894 10.4653 15.3523 10.4597 15.2124C10.4597 15.1508 10.457 15.0893 10.4514 15.0277C10.4514 14.9046 10.4514 14.7787 10.4514 14.65V14.4738H10.443C10.3758 12.8538 10.7789 11.6116 10.8293 11.4857V11.4773C11.6355 8.43049 13.6258 6.78538 15.5658 5.19902C16.9263 4.0827 18.3371 2.9244 19.5549 1.18696C19.7984 0.826047 20.2015 0.616211 20.6382 0.616211C20.8566 0.616211 21.0665 0.666572 21.2513 0.767293C21.436 0.868014 21.604 1.0107 21.73 1.18696C22.9393 2.9244 24.3501 4.0827 25.7106 5.19902C26.2817 5.66906 26.8276 6.11391 27.3483 6.60073C28.5492 7.70866 29.8341 9.14394 30.4471 11.4773Z" fill="url(#paint0_linear_970_14196)"/>
<path d="M28.289 11.0747C28.0455 11.0579 27.7935 11.0411 27.5332 11.0327C27.7907 11.0383 28.0427 11.0523 28.289 11.0747Z" fill="url(#paint1_linear_970_14196)"/>
<path d="M29.4125 13.8863C29.3006 13.8919 29.1858 13.8835 29.0682 13.8611C28.7827 13.8051 28.4776 13.7604 28.1528 13.7268C28.6315 13.7352 29.0598 13.8023 29.4125 13.8863Z" fill="url(#paint2_linear_970_14196)"/>
<path fill-rule="evenodd" clip-rule="evenodd" d="M18.6523 27.634C18.6523 27.634 18.6551 27.634 18.6607 27.634H18.6523ZM13.2019 28.6832C13.1935 28.6832 13.1851 28.6832 13.1767 28.6832C13.1879 28.6832 13.1963 28.6832 13.2019 28.6832ZM27.2687 31.3775H27.1847C27.2099 31.3775 27.2351 31.3775 27.2687 31.3775Z" fill="url(#paint3_linear_970_14196)"/>
<path fill-rule="evenodd" clip-rule="evenodd" d="M20.6111 16.4716L19.3262 15.2629C19.4662 15.386 19.6034 15.5063 19.7377 15.6239C19.7377 15.6295 19.7405 15.635 19.7461 15.6406C19.7517 15.6462 19.7601 15.6518 19.7713 15.6574C19.7769 15.6686 19.7825 15.6742 19.7881 15.6742L19.8049 15.6994C19.9813 15.8589 20.2584 16.1275 20.6111 16.4716Z" fill="url(#paint4_linear_970_14196)"/>
<path d="M13.174 28.659C13.174 28.6674 13.174 28.6758 13.174 28.6842H13.1824C13.174 28.6758 13.174 28.6674 13.174 28.659Z" fill="url(#paint5_linear_970_14196)"/>
<path d="M20.6413 29.4735C20.6301 29.4847 20.6162 29.4959 20.5994 29.5071C20.4762 29.5966 20.3502 29.6834 20.2214 29.7673C20.1963 29.7925 20.1711 29.8009 20.1375 29.8261C20.0311 29.8988 19.9191 29.9688 19.8015 30.0359C19.7344 30.0751 19.6672 30.1142 19.6 30.1534C19.4656 30.2317 19.3257 30.3045 19.1801 30.3716C19.1129 30.4052 19.0429 30.4388 18.9701 30.4724C18.9477 30.4835 18.9281 30.4919 18.9113 30.4975C18.7154 30.5871 18.5166 30.6682 18.3151 30.7409C18.1695 30.7969 18.0184 30.8473 17.8616 30.892C17.8112 30.9088 17.758 30.9256 17.702 30.9424C17.618 30.9704 17.5341 30.9955 17.4501 31.0179C17.4053 31.0291 17.3633 31.0403 17.3241 31.0515C17.2177 31.0739 17.1114 31.0963 17.005 31.1186C16.977 31.1298 16.949 31.1354 16.921 31.1354C16.7978 31.1634 16.6747 31.1886 16.5515 31.211C16.4115 31.2334 16.2688 31.2529 16.1232 31.2697C16 31.2865 15.874 31.3033 15.7453 31.3201C15.7117 31.3201 15.6753 31.3229 15.6361 31.3285C15.5129 31.3397 15.3898 31.3481 15.2666 31.3537C15.1322 31.3621 14.9895 31.3705 14.8467 31.3788C14.7851 31.3788 14.7235 31.3816 14.6619 31.3872C14.5444 31.3872 14.4212 31.3872 14.2924 31.3872H14.284C13.377 31.3872 12.5624 31.3117 11.7982 31.1606C11.7898 31.1606 11.7814 31.1606 11.773 31.1606C11.4931 31.1047 11.2215 31.0403 10.9584 30.9676C8.00227 30.1366 6.39823 28.1726 4.83619 26.2756C3.71085 24.9159 2.56032 23.5058 0.813523 22.2888C0.460805 22.0454 0.250854 21.6341 0.250854 21.206C0.250854 20.7696 0.460805 20.3667 0.813523 20.1149C2.56032 18.8978 3.71925 17.4877 4.83619 16.128C5.30649 15.5572 5.75158 15.0201 6.23027 14.4997C7.28843 13.3498 8.65731 12.1159 10.8324 11.478V11.4864C10.782 11.6123 10.3789 12.8545 10.4461 14.4745C9.49712 14.9613 8.80008 15.6244 8.17862 16.2959C7.75032 16.7575 7.33042 17.2695 6.88532 17.8151C6.00353 18.8894 5.02935 20.0729 3.72765 21.206C5.02935 22.3307 6.00353 23.5142 6.88532 24.5886C8.04426 26.0071 9.02683 27.2073 10.4629 27.9375C10.5217 27.9711 11.5966 28.4831 13.0243 28.6678C13.0299 28.6678 13.0383 28.6678 13.0495 28.6678C13.0887 28.6734 13.1307 28.679 13.1755 28.6846H13.1839C13.1923 28.6846 13.2007 28.6929 13.2091 28.6929C13.2203 28.6929 13.2287 28.6929 13.2343 28.6929C13.3014 28.6985 13.3714 28.7041 13.4442 28.7097C13.5338 28.7153 13.6234 28.7209 13.7129 28.7265C13.8977 28.7321 14.0881 28.7349 14.284 28.7349C14.3512 28.7349 14.4156 28.7349 14.4772 28.7349C14.5388 28.7349 14.6003 28.7321 14.6619 28.7265C14.7291 28.7265 14.7907 28.7265 14.8467 28.7265C14.8635 28.7265 14.8775 28.7237 14.8887 28.7181C14.9503 28.7181 15.0118 28.7153 15.0734 28.7097C15.1574 28.7041 15.2386 28.6985 15.317 28.6929C15.401 28.6874 15.4821 28.679 15.5605 28.6678C15.6389 28.6622 15.7145 28.6538 15.7873 28.6426C15.8153 28.6426 15.8405 28.6398 15.8629 28.6342C15.9692 28.6174 16.0728 28.6006 16.1736 28.5838C16.2632 28.567 16.3499 28.5503 16.4339 28.5335C16.6355 28.4887 16.8286 28.4383 17.0134 28.3824C17.019 28.3824 17.0218 28.3824 17.0218 28.3824C17.0834 28.3656 17.1422 28.346 17.1981 28.3236C17.3213 28.2845 17.4389 28.2425 17.5509 28.1977C17.6068 28.1809 17.66 28.1614 17.7104 28.139C17.7608 28.1166 17.8112 28.0914 17.8616 28.0634C17.9568 28.0243 18.0491 27.9823 18.1387 27.9375C18.2955 27.8536 18.4439 27.7669 18.5838 27.6773C18.6062 27.6662 18.6286 27.6522 18.651 27.6354C18.9617 27.9543 19.2389 28.2313 19.474 28.4579C19.5664 28.5503 19.6504 28.6342 19.7344 28.7097C19.74 28.7153 19.7484 28.7209 19.7596 28.7265C20.0451 28.9951 20.339 29.2469 20.6413 29.4735Z" fill="url(#paint6_linear_970_14196)"/>
<path d="M28.9171 21.0039C28.9618 20.948 29.0038 20.892 29.043 20.836C28.9982 20.892 28.9562 20.9452 28.9171 20.9955C28.9171 21.0011 28.9171 21.0039 28.9171 21.0039ZM28.1528 13.7268C28.4776 13.7604 28.7827 13.8051 29.0682 13.8611C29.1858 13.8835 29.3006 13.8919 29.4125 13.8863C29.0598 13.8023 28.6315 13.7352 28.1528 13.7268Z" fill="url(#paint7_linear_970_14196)"/>
<path d="M41.0299 21.2064C41.0299 21.6344 40.8199 22.0457 40.4672 22.2891C38.7204 23.5062 37.5615 24.9163 36.4446 26.276C35.9743 26.8468 35.5292 27.3923 35.0505 27.9127C33.9671 29.0794 32.573 30.3384 30.3224 30.9679C30.4063 30.7049 30.4791 30.4308 30.5407 30.1454C30.5463 30.123 30.5519 30.1006 30.5575 30.0782C30.7003 29.4151 30.7843 28.7017 30.8179 27.9379C31.7752 27.4511 32.4807 26.788 33.0937 26.1165C33.5304 25.6465 33.9503 25.1345 34.3954 24.5973C35.2772 23.5146 36.2514 22.3311 37.5531 21.2064C36.2514 20.0733 35.2772 18.8898 34.3954 17.8154C33.2365 16.4053 32.2539 15.2135 30.8263 14.4748C30.8263 14.4748 30.3308 14.1055 29.407 13.8873C29.0543 13.8034 28.626 13.7362 28.1473 13.7278H28.1389C28.0885 13.7222 28.0381 13.7166 27.9877 13.711C27.9317 13.7054 27.8757 13.7026 27.8197 13.7026C27.7358 13.6971 27.6462 13.6915 27.551 13.6859C27.523 13.6859 27.4922 13.6859 27.4586 13.6859C27.3075 13.6803 27.1535 13.6775 26.9967 13.6775C26.9296 13.6775 26.8652 13.6775 26.8036 13.6775C26.742 13.6775 26.6804 13.6775 26.6188 13.6775C26.546 13.6831 26.4733 13.6859 26.4005 13.6859C26.3389 13.6915 26.2773 13.6971 26.2157 13.7026C26.1597 13.7026 26.1065 13.7054 26.0562 13.711C26.0058 13.711 25.9582 13.7138 25.9134 13.7194C25.7846 13.7306 25.6614 13.7446 25.5439 13.7614C25.5047 13.767 25.4655 13.7726 25.4263 13.7782C25.3647 13.7838 25.3059 13.7922 25.2499 13.8034C25.1884 13.8146 25.1268 13.8258 25.0652 13.8369C25.0372 13.8425 25.0064 13.8481 24.9728 13.8537C24.9224 13.8649 24.8748 13.8733 24.83 13.8789C24.7349 13.9013 24.6425 13.9237 24.5529 13.9461C24.4633 13.9684 24.3737 13.9936 24.2842 14.0216C24.2226 14.0384 24.161 14.0552 24.0994 14.072C24.0434 14.0943 23.9874 14.1167 23.9314 14.1391C23.8699 14.1559 23.8111 14.1755 23.7551 14.1979C23.7103 14.2146 23.6627 14.2342 23.6123 14.2566C23.5955 14.2622 23.5787 14.2706 23.5619 14.2818C23.5199 14.2986 23.4779 14.3154 23.436 14.3322C23.38 14.3545 23.324 14.3797 23.268 14.4077C23.2232 14.4301 23.1812 14.4525 23.142 14.4748C23.0916 14.5028 23.044 14.528 22.9993 14.5504C22.9405 14.584 22.8901 14.6091 22.8397 14.6427C22.7781 14.6763 22.7221 14.7099 22.6717 14.7434C22.6605 14.749 22.6521 14.7546 22.6465 14.7602C22.2266 14.3573 21.8907 14.0216 21.6724 13.8202C21.5968 13.7194 21.5044 13.6355 21.412 13.5684C21.4064 13.5684 21.4036 13.5684 21.4036 13.5684C21.37 13.5348 21.3364 13.504 21.3029 13.476C21.2245 13.4089 21.1461 13.3417 21.0677 13.2746C20.9389 13.1683 20.8074 13.0647 20.673 12.964C20.6646 12.9556 20.6562 12.9472 20.6394 12.9388C20.6842 12.9053 20.729 12.8717 20.7738 12.8381C20.841 12.7878 20.9081 12.7402 20.9753 12.6954C21.0313 12.6563 21.0873 12.6199 21.1433 12.5863C21.328 12.4632 21.5184 12.3485 21.7144 12.2422C21.7759 12.2086 21.8347 12.175 21.8907 12.1415C22.0363 12.0687 22.1818 11.9988 22.3274 11.9316C22.3946 11.8981 22.4618 11.8673 22.529 11.8393C22.5626 11.8225 22.599 11.8085 22.6381 11.7973C22.7221 11.7638 22.8061 11.7302 22.8901 11.6966C22.9685 11.663 23.044 11.6351 23.1168 11.6127C23.184 11.5903 23.2484 11.5679 23.31 11.5455C23.3828 11.5232 23.45 11.5036 23.5115 11.4868C23.6347 11.4476 23.7579 11.4112 23.8811 11.3777C23.8923 11.3777 23.9007 11.3777 23.9063 11.3777C24.0406 11.3441 24.175 11.3133 24.3094 11.2853C24.4101 11.263 24.5109 11.2434 24.6117 11.2266C24.6285 11.221 24.6453 11.2182 24.6621 11.2182C24.7013 11.207 24.7433 11.1986 24.788 11.193C24.8944 11.1762 25.0008 11.1594 25.1072 11.1427C25.124 11.1427 25.1408 11.1399 25.1576 11.1343C25.2863 11.1175 25.4179 11.1035 25.5523 11.0923C25.5747 11.0867 25.5999 11.0839 25.6279 11.0839C25.7566 11.0727 25.8854 11.0615 26.0142 11.0503C26.1541 11.0447 26.2941 11.0391 26.4341 11.0335C26.4957 11.0335 26.5572 11.0307 26.6188 11.0251C26.742 11.0251 26.868 11.0251 26.9967 11.0251C27.1143 11.0251 27.2319 11.0251 27.3495 11.0251C27.3775 11.0251 27.4054 11.0251 27.4334 11.0251H27.4502C27.4726 11.0307 27.495 11.0335 27.5174 11.0335C27.523 11.0335 27.5286 11.0335 27.5342 11.0335C27.7946 11.0419 28.0465 11.0587 28.29 11.0755C28.5364 11.0979 28.7771 11.1259 29.0123 11.1594C29.0795 11.1706 29.1466 11.1818 29.2138 11.193C29.281 11.2042 29.3454 11.2154 29.407 11.2266L29.6001 11.2686C29.8941 11.3273 30.1796 11.3945 30.4483 11.4784C33.3205 12.3261 34.9077 14.2566 36.4446 16.1284C37.5615 17.4965 38.7204 18.8982 40.4672 20.1152C40.8199 20.367 41.0299 20.7699 41.0299 21.2064Z" fill="url(#paint8_linear_970_14196)"/>
<path d="M28.289 11.0747C28.0455 11.0579 27.7935 11.0411 27.5332 11.0327C27.7907 11.0383 28.0427 11.0523 28.289 11.0747Z" fill="url(#paint9_linear_970_14196)"/>
<path d="M28.1001 28.6865C28.1059 28.6632 28.1088 28.637 28.1088 28.6079C28.1088 28.637 28.1088 28.6632 28.1088 28.6865H28.1001Z" fill="url(#paint10_linear_970_14196)"/>
<path d="M19.8006 15.6991L19.7838 15.6739C19.7782 15.6739 19.7726 15.6683 19.767 15.6571C19.7558 15.6515 19.7474 15.6459 19.7418 15.6403C19.7362 15.6347 19.7334 15.6292 19.7334 15.6236C19.5991 15.506 19.4619 15.3857 19.3219 15.2626L20.6068 16.4713C20.2541 16.1272 19.977 15.8586 19.8006 15.6991ZM14.2075 19.0145C14.3083 18.9194 14.4091 18.8215 14.5099 18.7207C14.4091 18.8159 14.3083 18.9138 14.2075 19.0145ZM18.6501 27.6346L18.6585 27.6262C18.6529 27.6318 18.6501 27.6346 18.6501 27.6346ZM20.6236 25.8635H20.632C20.7216 25.7628 20.8196 25.6593 20.926 25.553C20.8196 25.6593 20.7188 25.7628 20.6236 25.8635Z" fill="url(#paint11_linear_970_14196)"/>
<path d="M20.665 16.5301C20.6315 16.5637 20.5923 16.6001 20.5475 16.6392C20.3963 16.7903 20.2032 16.9778 19.968 17.2016C19.8728 17.2911 19.7721 17.3862 19.6657 17.487C19.6097 17.5373 19.5537 17.5905 19.4977 17.6464C19.3857 17.7527 19.2654 17.8647 19.1366 17.9822C19.075 18.0437 19.0106 18.1053 18.9434 18.1668C18.8763 18.2284 18.8091 18.2927 18.7419 18.3599C18.4396 18.6453 18.1204 18.9474 17.7929 19.2496C17.7145 19.3279 17.6361 19.4035 17.5578 19.4762C16.9951 20.005 16.4408 20.5338 15.9789 20.987C15.7102 21.2556 15.4666 21.4906 15.2735 21.6921C15.2735 21.6921 15.2707 21.6949 15.2651 21.7005C15.2595 21.7061 15.2567 21.7089 15.2567 21.7089C15.2511 21.7144 15.2455 21.7172 15.2399 21.7172L15.2231 21.7424C15.1811 21.776 15.1475 21.818 15.1139 21.8515C15.0971 21.8683 15.0803 21.8851 15.0635 21.9019C14.7696 22.2208 14.4757 22.5734 14.2153 22.9763C14.1314 23.0994 14.053 23.2281 13.9802 23.3624C13.9522 23.4127 13.9242 23.4659 13.8962 23.5218C13.8794 23.5554 13.8626 23.589 13.8458 23.6226C13.7842 23.7513 13.7254 23.8827 13.6695 24.017C13.6415 24.0842 13.6135 24.1541 13.5855 24.2269C13.5603 24.294 13.5351 24.3696 13.5183 24.4367C13.4959 24.4983 13.4763 24.5598 13.4595 24.6214C13.4371 24.6829 13.4175 24.7445 13.4007 24.806C13.3839 24.8732 13.3699 24.9375 13.3587 24.9991C13.3335 25.0746 13.3167 25.1502 13.2999 25.2341C13.2943 25.2789 13.2859 25.3292 13.2747 25.3852C13.258 25.4607 13.2496 25.5446 13.2328 25.6286C13.2216 25.7013 13.2104 25.7741 13.1992 25.8468C13.1908 25.8804 13.1908 25.9224 13.1824 25.9559C13.1768 26.0287 13.1712 26.0986 13.1656 26.1658C13.16 26.2161 13.1544 26.2665 13.1488 26.3168C13.1432 26.3896 13.1376 26.4595 13.132 26.5267C13.1208 26.6722 13.1124 26.8205 13.1068 26.9715C13.1068 27.0331 13.1068 27.0946 13.1068 27.1562C13.1068 27.2233 13.1068 27.2877 13.1068 27.3492C13.1068 27.4556 13.1068 27.5563 13.1068 27.6514C13.1124 27.7353 13.1152 27.8193 13.1152 27.9032C13.1152 27.9256 13.118 27.948 13.1236 27.9703C13.1236 28.0599 13.1292 28.1494 13.1404 28.2389C13.146 28.3341 13.1544 28.4292 13.1656 28.5243C13.1656 28.5691 13.1684 28.6138 13.174 28.6586C13.174 28.6642 13.174 28.6698 13.174 28.6754V28.6838C13.1292 28.6782 13.0872 28.6726 13.048 28.667C13.0368 28.667 13.0284 28.667 13.0228 28.667C11.5951 28.4824 10.5202 27.9704 10.4614 27.9368C10.4614 27.8752 10.4586 27.8109 10.453 27.7437V27.7185C10.453 27.5954 10.453 27.4723 10.453 27.3492C10.453 27.2205 10.453 27.0946 10.453 26.9715C10.4586 26.91 10.4614 26.8512 10.4614 26.7953C10.467 26.6554 10.4726 26.5183 10.4782 26.384C10.4894 26.2497 10.5006 26.1154 10.5118 25.9811C10.5118 25.9587 10.5146 25.9363 10.5202 25.914C10.5314 25.7797 10.5454 25.6482 10.5622 25.5195C10.5846 25.374 10.607 25.2313 10.6294 25.0914C10.6518 24.9627 10.6742 24.8396 10.6965 24.7221C10.7021 24.6941 10.7077 24.6689 10.7133 24.6466C10.7413 24.5346 10.7665 24.4227 10.7889 24.3108C10.8001 24.2716 10.8113 24.2325 10.8225 24.1933C10.8449 24.1038 10.8701 24.017 10.8981 23.9331C10.9093 23.8827 10.9233 23.8296 10.9401 23.7736C10.9625 23.7065 10.9877 23.6365 11.0157 23.5638C11.0381 23.4799 11.0661 23.4015 11.0997 23.3288C11.122 23.2672 11.1444 23.2057 11.1668 23.1441C11.1724 23.1217 11.1808 23.1022 11.192 23.0854C11.2368 22.9623 11.2872 22.8448 11.3432 22.7329C11.3544 22.6993 11.3684 22.6657 11.3852 22.6321C11.4132 22.5762 11.4412 22.5174 11.4692 22.4559C11.5699 22.246 11.6791 22.0446 11.8051 21.8431C11.8219 21.8096 11.8415 21.7732 11.8639 21.734C11.9143 21.6557 11.9647 21.5774 12.015 21.499C12.0486 21.4487 12.0822 21.3983 12.1158 21.3479C12.1438 21.3088 12.169 21.2724 12.1914 21.2388C12.2306 21.1885 12.267 21.1353 12.3006 21.0793C12.323 21.057 12.3454 21.029 12.3678 20.9954C12.5917 20.6988 12.8381 20.4051 13.1068 20.1141C13.118 20.1085 13.1264 20.1029 13.132 20.0973C13.1572 20.0637 13.174 20.0386 13.1992 20.0134C13.2496 19.9714 13.2915 19.9211 13.3335 19.8791C13.3587 19.8539 13.3755 19.8371 13.3923 19.8203C13.6191 19.5853 13.8962 19.3083 14.2069 19.0146C14.3077 18.9194 14.4085 18.8215 14.5093 18.7208C14.5653 18.6648 14.6184 18.6117 14.6688 18.5613C14.7248 18.511 14.7808 18.4606 14.8368 18.4102C14.8816 18.3655 14.9292 18.3179 14.9796 18.2675C15.601 17.6716 16.2813 17.0337 16.9195 16.4294C17.331 16.0433 17.7257 15.674 18.0616 15.355C18.1036 15.3131 18.1372 15.2795 18.1708 15.2459C18.1932 15.2291 18.2128 15.2123 18.2296 15.1956C18.252 15.1732 18.2772 15.148 18.3052 15.12C18.4396 14.9913 18.5571 14.8766 18.6579 14.7759C18.9015 14.9354 19.1198 15.0948 19.3214 15.2627L20.6063 16.4714L20.665 16.5301Z" fill="url(#paint12_linear_970_14196)"/>
<path d="M30.8245 27.3498C30.8245 27.4673 30.8245 27.582 30.8245 27.694C30.8189 27.7779 30.8161 27.859 30.8161 27.9374C30.7825 28.7012 30.6986 29.4146 30.5558 30.0777C30.5502 30.1001 30.5446 30.1225 30.539 30.1448C30.4774 30.4302 30.4046 30.7044 30.3206 30.9674C29.4472 33.7288 27.5493 35.29 25.7101 36.7924C24.3496 37.9172 22.9387 39.0671 21.7294 40.8129C21.4775 41.1738 21.0744 41.3836 20.6377 41.3836C20.201 41.3836 19.7979 41.1738 19.5543 40.8129C18.3366 39.0754 16.9257 37.9172 15.5652 36.8008C14.9942 36.3308 14.4483 35.8859 13.9276 35.3991C12.8107 34.3751 11.6098 33.049 10.9547 30.9674C11.2179 31.0401 11.4894 31.1045 11.7693 31.1604C11.7777 31.1604 11.7861 31.1604 11.7945 31.1604C12.5587 31.3115 13.3734 31.3871 14.2803 31.3871C14.1908 31.3871 14.1012 31.3871 14.0116 31.3871C14.4819 32.2348 15.1034 32.8811 15.7248 33.4519C16.1951 33.8799 16.7074 34.308 17.2449 34.7444C18.3282 35.6341 19.5123 36.6078 20.6377 37.9004C21.763 36.6078 22.9555 35.6341 24.0305 34.7444C25.3742 33.6449 26.5247 32.7048 27.2638 31.3871C27.7844 30.3715 28.0448 28.9781 28.0952 28.7263C28.0952 28.6984 28.0952 28.6844 28.0952 28.6844H28.1036C28.1036 28.662 28.1036 28.6368 28.1036 28.6088C28.1148 28.5585 28.1203 28.5081 28.1203 28.4578C28.1315 28.385 28.1371 28.3123 28.1371 28.2395C28.1483 28.15 28.1539 28.0605 28.1539 27.9709C28.1595 27.9486 28.1623 27.9262 28.1623 27.9038C28.1623 27.8199 28.1651 27.7359 28.1707 27.652C28.1707 27.5569 28.1707 27.4561 28.1707 27.3498C28.1707 27.2883 28.1707 27.2267 28.1707 27.1652C28.1707 27.098 28.1707 27.0337 28.1707 26.9721C28.1707 26.9134 28.1623 26.8546 28.1623 26.7959C28.1623 26.7791 28.1623 26.7651 28.1623 26.7539C28.1539 26.6867 28.1539 26.628 28.1455 26.5692C28.1455 26.4853 28.1399 26.4042 28.1287 26.3258C28.1176 26.1859 28.1036 26.0488 28.0868 25.9146C28.0812 25.8698 28.0756 25.825 28.07 25.7803C28.0532 25.6795 28.0364 25.5788 28.0196 25.4781C28.014 25.4333 28.0056 25.3886 27.9944 25.3438C27.9944 25.3326 27.9916 25.3214 27.986 25.3102C27.9804 25.2655 27.972 25.2235 27.9608 25.1843C27.8992 24.8989 27.8264 24.6332 27.7424 24.3869C27.7144 24.2918 27.6809 24.1995 27.6417 24.11C27.6249 24.054 27.6053 24.0008 27.5829 23.9505C27.5381 23.8442 27.4905 23.7407 27.4401 23.6399C27.3617 23.4833 27.2805 23.335 27.1966 23.1951C27.163 23.1279 27.121 23.0692 27.0874 23.0104V23.002C27.4317 22.6495 27.7004 22.3725 27.86 22.213C27.916 22.1571 27.9692 22.1011 28.0196 22.0452C28.0588 22.006 28.098 21.964 28.1371 21.9193C28.1371 21.9193 28.1455 21.9109 28.1539 21.9025C28.1539 21.9025 28.1567 21.8997 28.1623 21.8941C28.4311 21.6031 28.6802 21.3066 28.9098 21.0044C28.9322 21.0268 28.9546 21.0548 28.977 21.0883C29.0105 21.1387 29.0469 21.189 29.0861 21.2394C29.3437 21.6087 29.5732 21.9892 29.7748 22.3809C29.8028 22.4369 29.828 22.4928 29.8504 22.5488C29.9959 22.8509 30.1247 23.1615 30.2367 23.4805C30.2591 23.542 30.2814 23.6064 30.3038 23.6735C30.3206 23.7351 30.3402 23.7994 30.3626 23.8666C30.4018 23.9953 30.4382 24.1267 30.4718 24.261C30.5054 24.3953 30.5362 24.5324 30.5642 24.6723C30.5922 24.7898 30.6174 24.9101 30.6398 25.0332C30.6454 25.0668 30.651 25.1032 30.6566 25.1424C30.6734 25.2487 30.6902 25.3578 30.707 25.4697C30.707 25.4865 30.7098 25.5033 30.7154 25.5201C30.7321 25.6488 30.7461 25.7803 30.7573 25.9146C30.7629 25.9369 30.7657 25.9593 30.7657 25.9817C30.7769 26.116 30.7881 26.2503 30.7993 26.3846C30.8049 26.5189 30.8105 26.656 30.8161 26.7959C30.8161 26.8518 30.8189 26.9106 30.8245 26.9721C30.8245 27.0952 30.8245 27.2211 30.8245 27.3498Z" fill="url(#paint13_linear_970_14196)"/>
<path d="M28.1528 13.7268C28.4776 13.7604 28.7827 13.8051 29.0682 13.8611C29.1858 13.8835 29.3006 13.8919 29.4125 13.8863C29.0598 13.8023 28.6315 13.7352 28.1528 13.7268Z" fill="url(#paint14_linear_970_14196)"/>
<path d="M30.8267 14.6501C30.8267 14.7788 30.8267 14.9047 30.8267 15.0278C30.8211 15.0893 30.8183 15.1509 30.8183 15.2124C30.8127 15.3523 30.8071 15.4894 30.8015 15.6237C30.7903 15.758 30.7791 15.8895 30.7679 16.0182C30.7679 16.0406 30.7651 16.0658 30.7595 16.0938C30.7483 16.2225 30.7343 16.3512 30.7175 16.4799C30.7119 16.4966 30.7091 16.5134 30.7091 16.5302C30.6924 16.6421 30.6756 16.7512 30.6588 16.8576C30.6532 16.8967 30.6476 16.9359 30.642 16.9751C30.6196 17.0926 30.5944 17.2101 30.5664 17.3276C30.5384 17.4675 30.5076 17.6046 30.474 17.7389C30.4404 17.8732 30.404 18.0047 30.3648 18.1334C30.3424 18.2005 30.3228 18.2649 30.306 18.3264C30.2836 18.3936 30.2612 18.4579 30.2389 18.5195C30.1269 18.844 29.9953 19.1602 29.8441 19.4679C29.8217 19.5239 29.7966 19.577 29.7686 19.6274C29.6454 19.8624 29.5138 20.0974 29.3739 20.3324C29.3011 20.4443 29.2255 20.5563 29.1471 20.6682C29.1079 20.7241 29.0715 20.7801 29.0379 20.836C28.9931 20.892 28.9511 20.9452 28.912 20.9955C28.912 21.0011 28.912 21.0039 28.912 21.0039C28.6824 21.3061 28.4333 21.6026 28.1645 21.8936C28.1589 21.8992 28.1561 21.902 28.1561 21.902C28.1477 21.9104 28.1393 21.9188 28.1393 21.9188C28.1001 21.9636 28.061 22.0055 28.0218 22.0447C27.9714 22.1006 27.9182 22.1566 27.8622 22.2126C27.7026 22.372 27.4339 22.649 27.0896 23.0015V23.0099C27.056 23.0379 27.0224 23.0687 26.9888 23.1023C26.9328 23.1582 26.8768 23.217 26.8208 23.2785C26.7593 23.3401 26.6977 23.4044 26.6361 23.4716C26.5185 23.5891 26.3981 23.7122 26.275 23.8409C25.9306 24.1934 25.5611 24.5711 25.1916 24.9656C24.9985 25.167 24.7969 25.3685 24.6038 25.5699C24.475 25.7042 24.3462 25.8385 24.2174 25.9728C24.1503 26.04 24.0859 26.1071 24.0243 26.1743C23.8955 26.303 23.7723 26.4261 23.6548 26.5436C23.6492 26.5492 23.6464 26.5548 23.6464 26.5604C23.54 26.6667 23.4364 26.773 23.3356 26.8793C23.0753 27.1479 22.8318 27.3997 22.6134 27.6263C22.563 27.5927 22.5126 27.5592 22.4622 27.5256C22.1263 27.2906 21.8324 27.0388 21.5469 26.7786V26.7702C21.4797 26.7114 21.4041 26.6359 21.3201 26.5604C21.127 26.3673 20.8918 26.1323 20.6315 25.8637C20.721 25.763 20.819 25.6595 20.9254 25.5531C20.959 25.514 20.9954 25.4776 21.0346 25.444L21.0682 25.4105C21.1633 25.3097 21.2613 25.209 21.3621 25.1083C21.3677 25.1027 21.3733 25.0943 21.3789 25.0831C21.4797 24.9824 21.5833 24.8761 21.6896 24.7642C21.7064 24.7474 21.7232 24.7306 21.74 24.7138C21.8576 24.5879 21.9836 24.462 22.1179 24.3277C22.4958 23.9332 22.8905 23.5219 23.2853 23.1191C23.8815 22.4979 24.4694 21.8936 24.9481 21.3984C24.9649 21.3816 24.9789 21.3676 24.9901 21.3564C25.0293 21.3173 25.0684 21.2781 25.1076 21.2389C25.1412 21.2054 25.1748 21.169 25.2084 21.1298C25.2308 21.1074 25.2532 21.085 25.2756 21.0627L25.3092 21.0291V21.0207C25.6199 20.7101 25.8551 20.4667 25.9894 20.3324C25.9894 20.3268 25.9922 20.324 25.9978 20.324L26.0146 20.2989L26.0314 20.2821C26.037 20.2765 26.0426 20.2709 26.0482 20.2653C26.0986 20.2149 26.149 20.1646 26.2078 20.1058L26.2162 20.0974C26.5101 19.7785 26.7956 19.4343 27.0644 19.0315C27.14 18.9056 27.2156 18.7797 27.2911 18.6454C27.3303 18.5782 27.3667 18.5111 27.4003 18.4439C27.4395 18.3712 27.4759 18.2984 27.5095 18.2257C27.5431 18.1529 27.5739 18.0774 27.6019 17.9991C27.6355 17.9263 27.6662 17.848 27.6942 17.764C27.7222 17.6969 27.7474 17.6298 27.7698 17.5626C27.7754 17.529 27.7838 17.4983 27.795 17.4703C27.8174 17.4031 27.837 17.3332 27.8538 17.2604C27.921 17.0338 27.9714 16.7988 28.0218 16.547C28.033 16.491 28.0414 16.4323 28.047 16.3707C28.075 16.2085 28.0973 16.0378 28.1141 15.8587C28.1197 15.8028 28.1253 15.744 28.1309 15.6825C28.1365 15.6097 28.1421 15.5342 28.1477 15.4559C28.1589 15.316 28.1673 15.1733 28.1729 15.0278C28.1729 14.9662 28.1729 14.9047 28.1729 14.8431C28.1729 14.776 28.1729 14.7116 28.1729 14.6501C28.1729 14.5494 28.1729 14.4514 28.1729 14.3563C28.1729 14.2892 28.1701 14.222 28.1645 14.1549C28.1645 14.1325 28.1645 14.1101 28.1645 14.0877C28.1561 13.9786 28.1477 13.8611 28.1393 13.752C28.1393 13.7464 28.1393 13.738 28.1393 13.7268H28.1477C28.4725 13.7604 28.7776 13.8051 29.0631 13.8611C29.1807 13.8835 29.2955 13.8919 29.4074 13.8863C30.3312 14.1045 30.8267 14.4738 30.8267 14.4738C30.8267 14.5298 30.8267 14.5885 30.8267 14.6501Z" fill="url(#paint15_linear_970_14196)"/>
<path d="M10.4528 14.4739V14.6532C10.4471 14.5906 10.4442 14.5308 10.4442 14.4739H10.4528Z" fill="url(#paint16_linear_970_14196)"/>
<path d="M27.064 19.0325C26.7953 19.4354 26.5097 19.7795 26.2158 20.0984L26.2074 20.1068C26.1486 20.1656 26.0982 20.2159 26.0478 20.2663C26.0422 20.2719 26.0366 20.2775 26.031 20.2831L26.0142 20.2999L25.9974 20.3251C25.9918 20.3251 25.989 20.3279 25.989 20.3335C25.8547 20.4678 25.6195 20.7112 25.3088 21.0217C25.3032 21.0217 25.3004 21.0189 25.3004 21.0133C25.2948 21.0077 25.2892 21.0049 25.2836 21.0049C25.25 20.9714 25.1996 20.9294 25.1576 20.8874C25.1073 20.8371 25.0541 20.7839 24.9981 20.7279C24.8805 20.6188 24.7545 20.5013 24.6286 20.3754C24.5222 20.2747 24.4102 20.1684 24.2926 20.0565C23.562 19.3514 22.6634 18.4701 21.8236 17.656C21.7396 17.572 21.6556 17.4909 21.5717 17.4125C21.4877 17.3286 21.4093 17.2503 21.3365 17.1775C21.2413 17.088 21.1518 17.0013 21.0678 16.9173C21.0566 16.9061 21.0426 16.8949 21.0258 16.8838C20.9474 16.8054 20.869 16.7299 20.7906 16.6571C20.7515 16.6124 20.7095 16.5704 20.6647 16.5312L20.6059 16.4725C20.2532 16.1284 19.976 15.8598 19.7997 15.7003L19.7829 15.6751C19.7773 15.6751 19.7717 15.6695 19.7661 15.6583C19.7549 15.6527 19.7465 15.6471 19.7409 15.6415C19.7353 15.6359 19.7325 15.6303 19.7325 15.6247C19.5981 15.5072 19.461 15.3869 19.321 15.2638C19.1194 15.096 18.9011 14.9365 18.6575 14.777C18.5456 14.7043 18.428 14.6343 18.3048 14.5672C18.2936 14.5616 18.2852 14.556 18.2796 14.5504C18.218 14.5168 18.1565 14.4832 18.0949 14.4497C18.0837 14.4441 18.0725 14.4385 18.0613 14.4329C17.9941 14.3993 17.9269 14.3685 17.8597 14.3406C17.7925 14.307 17.7254 14.2762 17.6582 14.2482C17.563 14.2091 17.4678 14.1727 17.3726 14.1391C17.2999 14.1167 17.2243 14.0915 17.1459 14.0636C17.0451 14.03 16.9387 13.9992 16.8268 13.9712C16.7652 13.9545 16.7064 13.9405 16.6504 13.9293C16.5776 13.9069 16.5048 13.8901 16.4321 13.8789C16.3649 13.8621 16.2949 13.8481 16.2221 13.8369C16.1605 13.8258 16.0933 13.8146 16.0205 13.8034C16.0205 13.8034 16.0177 13.8034 16.0122 13.8034C15.9394 13.7922 15.8638 13.781 15.7854 13.7698C15.707 13.7586 15.6258 13.7474 15.5419 13.7362C15.4691 13.7306 15.3935 13.725 15.3151 13.7194C15.2367 13.7082 15.1555 13.7026 15.0716 13.7026C15.01 13.6971 14.9456 13.6915 14.8784 13.6859C14.8112 13.6859 14.7412 13.6831 14.6685 13.6775C14.6013 13.6775 14.5369 13.6775 14.4753 13.6775C14.4137 13.6775 14.3493 13.6775 14.2821 13.6775C14.1254 13.6775 13.9714 13.6803 13.8203 13.6859C13.7867 13.6859 13.7559 13.6859 13.7279 13.6859C13.6383 13.6915 13.5487 13.6971 13.4591 13.7026C13.4032 13.7026 13.3444 13.7054 13.2828 13.711C13.2324 13.7194 13.182 13.7194 13.14 13.7278C13.14 13.7222 13.14 13.7166 13.14 13.711V13.7026C13.3836 11.8729 13.7699 11.0839 13.7951 11.0335C13.8175 11.0279 13.8399 11.0251 13.8622 11.0251C13.8846 11.0251 13.907 11.0251 13.9294 11.0251C14.047 11.0251 14.1646 11.0251 14.2821 11.0251C14.4109 11.0251 14.5369 11.0251 14.6601 11.0251C14.6769 11.0251 14.6909 11.0251 14.7021 11.0251C14.7524 11.0251 14.8 11.0279 14.8448 11.0335C14.9876 11.0335 15.1304 11.0419 15.2647 11.0503C15.3879 11.0615 15.5111 11.0727 15.6342 11.0839C15.6734 11.0839 15.7098 11.0867 15.7434 11.0923C15.8666 11.1035 15.987 11.1175 16.1045 11.1343C16.1269 11.1399 16.1493 11.1427 16.1717 11.1427C16.2781 11.1594 16.3817 11.1762 16.4824 11.193C16.5328 11.1986 16.5804 11.207 16.6252 11.2182C16.642 11.2182 16.6588 11.2182 16.6672 11.2266C16.768 11.2434 16.8688 11.263 16.9695 11.2853C17.1039 11.3077 17.2355 11.3385 17.3642 11.3777C17.3754 11.3777 17.3866 11.3777 17.3978 11.3777C17.5098 11.4112 17.6246 11.4448 17.7422 11.4784C18.0333 11.5623 18.3132 11.6602 18.582 11.7722C18.7163 11.8225 18.8423 11.8813 18.9599 11.9316C19.0327 11.9652 19.1054 11.9988 19.1782 12.0324C19.2454 12.0715 19.3154 12.1079 19.3882 12.1415C19.4554 12.1806 19.5225 12.217 19.5897 12.2506C19.6569 12.2926 19.7325 12.3345 19.7997 12.3681C19.9117 12.4408 20.0236 12.5136 20.1356 12.5863C20.2252 12.6423 20.312 12.6982 20.3959 12.7542C20.4631 12.8046 20.5275 12.8521 20.5891 12.8969C20.6059 12.9081 20.6227 12.9221 20.6395 12.9388C20.6563 12.9472 20.6647 12.9556 20.6731 12.964C20.8074 13.0647 20.939 13.1683 21.0678 13.2746C21.1462 13.3417 21.2245 13.4089 21.3029 13.476C21.3365 13.504 21.3701 13.5348 21.4037 13.5684C21.4037 13.5684 21.4065 13.5684 21.4121 13.5684C21.5045 13.6355 21.5969 13.7194 21.6724 13.8202C21.8908 14.0216 22.2267 14.3573 22.6466 14.7602C22.7306 14.8386 22.8146 14.9197 22.8986 15.0036C23.0497 15.1463 23.2009 15.2974 23.3605 15.4485C23.4612 15.5492 23.5676 15.6527 23.6796 15.759C24.5026 16.5648 25.46 17.4965 26.2158 18.2267C26.2718 18.2771 26.325 18.3274 26.3754 18.3778C26.6441 18.6296 26.8708 18.8562 27.064 19.0325Z" fill="url(#paint17_linear_970_14196)"/>
<path d="M28.0966 28.6838C28.0966 28.6838 28.0966 28.6978 28.0966 28.7258C28.0462 28.9776 27.7859 30.3709 27.2652 31.3865C27.2316 31.3865 27.2148 31.3865 27.1812 31.3865H27.1308C27.086 31.3865 27.0412 31.3865 26.9964 31.3865C25.5436 31.3865 24.2671 31.1935 23.1165 30.799C22.9934 30.7542 22.8674 30.7066 22.7386 30.6563C22.6155 30.6059 22.4923 30.5528 22.3691 30.4968C22.2515 30.4409 22.1312 30.3849 22.008 30.3289C21.8344 30.2338 21.6609 30.1359 21.4873 30.0352C21.3697 29.968 21.255 29.8981 21.143 29.8253C21.059 29.7638 20.975 29.705 20.8911 29.6491C20.8071 29.5931 20.7231 29.5344 20.6391 29.4728C20.3368 29.2462 20.0429 28.9944 19.7573 28.7258C19.7461 28.7202 19.7377 28.7146 19.7321 28.709C19.6481 28.6335 19.5642 28.5495 19.4718 28.4572C19.2366 28.2306 18.9595 27.9536 18.6488 27.6347H18.6572C18.6516 27.6347 18.6488 27.6347 18.6488 27.6347C18.1113 27.0891 17.4898 26.4344 16.8684 25.7797C16.7088 25.6034 16.5409 25.4272 16.3813 25.2593C16.2133 25.0859 16.051 24.9152 15.8942 24.7473C15.2308 24.0423 14.5925 23.3624 14.2146 22.9763C14.4749 22.5734 14.7689 22.2209 15.0628 21.9019C15.0796 21.8852 15.0964 21.8684 15.1132 21.8516C15.1468 21.818 15.1804 21.776 15.2224 21.7425L15.2392 21.7173C15.2448 21.7173 15.2504 21.7145 15.256 21.7089C15.256 21.7089 15.2588 21.7061 15.2644 21.7005C15.27 21.6949 15.2728 21.6921 15.2728 21.6921C15.4659 21.4907 15.7095 21.2557 15.9782 20.9871C16.3309 21.348 16.944 21.9943 17.8258 22.9259C18.3464 23.4799 18.9259 24.0926 19.4718 24.6718C19.5502 24.7501 19.6313 24.8313 19.7153 24.9152C19.8273 25.0383 19.9421 25.1586 20.0596 25.2761C20.1268 25.3488 20.1912 25.4188 20.2528 25.4859C20.3816 25.6146 20.5047 25.7405 20.6223 25.8636H20.6307C20.8911 26.1322 21.1262 26.3672 21.3194 26.5603C21.4033 26.6358 21.4789 26.7114 21.5461 26.7701V26.7785C21.8316 27.0387 22.1256 27.2905 22.4615 27.5255C22.5119 27.5591 22.5623 27.5927 22.6127 27.6263C22.9234 27.8277 23.2593 28.004 23.6456 28.1634C23.7184 28.197 23.7968 28.2278 23.8808 28.2558C23.9479 28.2782 24.0151 28.3005 24.0823 28.3229C24.1383 28.3453 24.1943 28.3649 24.2503 28.3817C24.3175 28.3985 24.3847 28.4152 24.4518 28.432C24.5526 28.46 24.6562 28.488 24.7626 28.516C24.7738 28.516 24.7878 28.5188 24.8046 28.5244C24.8549 28.53 24.9025 28.5383 24.9473 28.5495C25.1601 28.5943 25.384 28.6307 25.6192 28.6587C25.6584 28.6642 25.6947 28.6671 25.7283 28.6671C25.7507 28.6726 25.7731 28.6754 25.7955 28.6754C25.8459 28.681 25.9019 28.6866 25.9635 28.6922C26.0307 28.6978 26.1035 28.7034 26.1818 28.709C26.3218 28.7202 26.4646 28.7258 26.6101 28.7258C26.6717 28.7314 26.7361 28.7342 26.8033 28.7342C26.8649 28.7342 26.9293 28.7342 26.9964 28.7342C27.1868 28.7342 27.3744 28.7314 27.5591 28.7258C27.6487 28.7202 27.7383 28.7146 27.8279 28.709C27.923 28.7034 28.0126 28.695 28.0966 28.6838Z" fill="url(#paint18_linear_970_14196)"/>
<g style="mix-blend-mode:multiply">
<path d="M30.4561 11.4779C30.1789 11.3939 29.8934 11.3268 29.5994 11.268L29.4063 11.2261C29.3447 11.2149 29.2803 11.2065 29.2131 11.2009C29.1459 11.1841 29.0788 11.1729 29.0116 11.1673C28.7764 11.1281 28.5357 11.0974 28.2893 11.075C28.043 11.0526 27.7939 11.0386 27.5419 11.033C27.5307 11.033 27.5223 11.033 27.5167 11.033C27.5055 11.033 27.4943 11.033 27.4831 11.033C27.36 10.7644 27.22 10.5098 27.0632 10.2692L29.3475 8.92627C29.801 9.63971 30.1873 10.4791 30.4561 11.4779Z" fill="url(#paint19_linear_970_14196)"/>
</g>
<g style="mix-blend-mode:multiply">
<path d="M10.8326 11.4775V11.4859C10.8326 11.4859 10.8326 11.4887 10.8326 11.4943C10.7822 11.6202 10.3791 12.8625 10.4463 14.474C9.49733 14.9692 8.80029 15.6239 8.17883 16.2954L9.1782 12.1406C9.67369 11.8804 10.2196 11.6538 10.8326 11.4775Z" fill="url(#paint20_linear_970_14196)"/>
</g>
<g style="mix-blend-mode:multiply">
<path d="M32.2296 26.9714L31.9861 30.3288C31.4906 30.5722 30.9363 30.7904 30.3232 30.9667C30.4072 30.7037 30.48 30.4295 30.5416 30.1442C30.5472 30.1218 30.5528 30.0994 30.5584 30.077C30.7012 29.4139 30.7851 28.7005 30.8187 27.9451C31.3562 27.6597 31.8181 27.3324 32.2296 26.9714Z" fill="url(#paint21_linear_970_14196)"/>
</g>
<g style="mix-blend-mode:multiply">
<path d="M20.6638 16.5296C20.6302 16.5632 20.591 16.5996 20.5462 16.6387C20.395 16.7898 20.2019 16.9773 19.9667 17.2011L16.8427 16.5044C16.865 16.4821 16.8902 16.4569 16.9182 16.4289C17.3297 16.0512 17.7244 15.6735 18.0604 15.3545C18.1024 15.321 18.136 15.279 18.1695 15.2454C18.1919 15.2286 18.2115 15.2118 18.2283 15.1951C18.2507 15.1727 18.2759 15.1503 18.3039 15.1279C18.4383 14.9936 18.5587 14.8761 18.665 14.7754C18.9002 14.9349 19.1185 15.0943 19.3201 15.2706L20.605 16.4709L20.6638 16.5296Z" fill="#C2FCD7"/>
</g>
<g style="mix-blend-mode:multiply">
<path d="M13.1824 28.6757V28.6841C13.1376 28.6841 13.0928 28.6813 13.048 28.6757C13.0368 28.6701 13.0284 28.6674 13.0228 28.6674C11.6035 28.4827 10.5202 27.9707 10.4614 27.9455C10.4614 27.8784 10.4586 27.8112 10.453 27.7441V27.7189C10.453 27.5958 10.453 27.4755 10.453 27.358C10.453 27.2293 10.453 27.1006 10.453 26.9719C10.4586 26.9103 10.4614 26.8516 10.4614 26.7956C10.467 26.6557 10.4754 26.5186 10.4866 26.3843C10.4922 26.25 10.5006 26.1157 10.5118 25.9815C10.5174 25.9591 10.5202 25.9367 10.5202 25.9143L13.1068 27.358C13.1068 27.4587 13.1068 27.5566 13.1068 27.6517C13.1124 27.7357 13.1152 27.8196 13.1152 27.9035C13.1152 27.9259 13.118 27.9483 13.1236 27.9707C13.1236 28.0602 13.1292 28.1498 13.1404 28.2393C13.146 28.3344 13.1544 28.4295 13.1656 28.5247C13.1656 28.5694 13.1684 28.6142 13.174 28.659C13.174 28.6646 13.1768 28.6701 13.1824 28.6757Z" fill="url(#paint22_linear_970_14196)"/>
</g>
<g style="mix-blend-mode:multiply">
<path d="M15.7248 33.4515L11.7357 32.7548C11.4334 32.2344 11.1647 31.6385 10.9547 30.967C11.2179 31.0398 11.4894 31.1041 11.7693 31.1601C11.7777 31.1601 11.7861 31.1601 11.7945 31.1601C12.5587 31.3112 13.3734 31.3867 14.2803 31.3867C14.1908 31.3867 14.1012 31.3867 14.0116 31.3867C14.4903 32.2344 15.1034 32.8807 15.7248 33.4515Z" fill="url(#paint23_linear_970_14196)"/>
</g>
<g style="mix-blend-mode:multiply">
<path d="M30.8279 14.6501C30.8279 14.7788 30.8279 14.9047 30.8279 15.0278C30.8223 15.0893 30.8195 15.1509 30.8195 15.2124C30.8139 15.3523 30.8083 15.4922 30.8027 15.6321L28.0481 16.3707C28.0761 16.2085 28.0985 16.0378 28.1153 15.8587C28.1209 15.8028 28.1265 15.744 28.1321 15.6825C28.1377 15.6097 28.1433 15.5342 28.1489 15.4559C28.1601 15.3216 28.1685 15.1789 28.1741 15.0278C28.1741 14.9662 28.1741 14.9047 28.1741 14.8431C28.1741 14.7816 28.1741 14.7172 28.1741 14.6501C28.1741 14.5494 28.1741 14.4514 28.1741 14.3563C28.1741 14.2892 28.1713 14.222 28.1657 14.1549C28.1657 14.1325 28.1657 14.1101 28.1657 14.0877C28.1573 13.9786 28.1489 13.8695 28.1405 13.752C28.1461 13.7464 28.1461 13.738 28.1405 13.7268H28.1489C28.4736 13.7604 28.7815 13.8051 29.0727 13.8611C29.1846 13.8835 29.2966 13.8919 29.4086 13.8863C30.3324 14.1045 30.8279 14.4738 30.8279 14.4738C30.8279 14.5298 30.8279 14.5885 30.8279 14.6501Z" fill="url(#paint24_linear_970_14196)"/>
</g>
<g style="mix-blend-mode:multiply">
<path d="M23.3356 26.8797C23.0753 27.1483 22.8318 27.4001 22.6134 27.6267C22.563 27.5932 22.5126 27.5596 22.4622 27.526C22.1263 27.291 21.8324 27.0392 21.5553 26.779L21.5469 26.7706C21.4797 26.7119 21.4041 26.6363 21.3201 26.5608C21.127 26.3677 20.8918 26.1327 20.6315 25.8641C20.7266 25.769 20.8246 25.6655 20.9254 25.5536C20.9646 25.52 21.001 25.4836 21.0346 25.4444L21.0682 25.4109C21.1633 25.3102 21.2613 25.2094 21.3621 25.1087C21.3677 25.1031 21.3733 25.0975 21.3789 25.0919C21.4797 24.9856 21.5833 24.8765 21.6896 24.7646C21.7064 24.7478 21.7232 24.731 21.74 24.7142C21.866 24.5883 21.992 24.4624 22.1179 24.3281L23.3356 26.8797Z" fill="url(#paint25_linear_970_14196)"/>
</g>
<g style="mix-blend-mode:multiply">
<path d="M15.6342 11.0839L13.8203 13.6859C13.7867 13.6859 13.7559 13.6859 13.7279 13.6859C13.6383 13.6915 13.5487 13.6971 13.4591 13.7026C13.4032 13.7082 13.3444 13.7138 13.2828 13.7194C13.2324 13.7194 13.1904 13.7278 13.14 13.7278C13.14 13.7222 13.14 13.7194 13.14 13.7194V13.7026C13.3836 11.8729 13.7699 11.0839 13.7951 11.0335C13.8175 11.0335 13.8399 11.0335 13.8622 11.0335C13.8846 11.0279 13.9098 11.0251 13.9378 11.0251C14.0498 11.0251 14.1646 11.0251 14.2821 11.0251C14.4109 11.0251 14.5369 11.0251 14.6601 11.0251C14.6769 11.0251 14.6937 11.0279 14.7105 11.0335C14.7552 11.0335 14.8 11.0335 14.8448 11.0335C14.9876 11.0419 15.1304 11.0503 15.2647 11.0587C15.3879 11.0643 15.5111 11.0727 15.6342 11.0839Z" fill="#C2FCD5"/>
</g>
<g style="mix-blend-mode:multiply">
<path d="M28.1002 28.6841C28.1002 28.6841 28.1002 28.6981 28.1002 28.726C28.0499 28.9779 27.7895 30.3712 27.2688 31.3868C27.2352 31.3868 27.2184 31.3868 27.1849 31.3868H27.1345C27.0897 31.3868 27.0449 31.3868 27.0001 31.3868C26.8153 31.3868 26.6334 31.384 26.4542 31.3784L26.6138 28.7344C26.6754 28.7344 26.7398 28.7344 26.8069 28.7344C26.8685 28.7344 26.9329 28.7344 27.0001 28.7344C27.1905 28.7344 27.378 28.7316 27.5628 28.726C27.6579 28.7205 27.7503 28.7149 27.8399 28.7093C27.9295 28.7037 28.0163 28.6953 28.1002 28.6841Z" fill="url(#paint26_linear_970_14196)"/>
</g>
<g style="mix-blend-mode:multiply">
<path d="M25.2499 13.8023C25.1884 13.8135 25.1296 13.8247 25.0736 13.8359C25.04 13.8414 25.0064 13.847 24.9728 13.8526C24.9224 13.8638 24.8748 13.875 24.83 13.8862C24.7349 13.903 24.6425 13.9226 24.5529 13.945C24.4633 13.9674 24.3737 13.9925 24.2842 14.0205C24.2226 14.0373 24.161 14.0569 24.0994 14.0793C24.0434 14.0961 23.9874 14.1156 23.9314 14.138C23.8699 14.1548 23.8139 14.1744 23.7635 14.1968C23.7131 14.2136 23.6627 14.2331 23.6123 14.2555C23.5955 14.2611 23.5787 14.2695 23.5619 14.2807C23.5199 14.2975 23.4779 14.3143 23.436 14.3311C23.38 14.3534 23.324 14.3786 23.268 14.4066C23.2232 14.429 23.1812 14.4514 23.142 14.4738C23.0916 14.5017 23.044 14.5269 22.9993 14.5493C22.9405 14.5829 22.8901 14.6164 22.8397 14.6416C22.7837 14.6752 22.7277 14.7116 22.6717 14.7507C22.6661 14.7507 22.6577 14.7535 22.6465 14.7591C22.235 14.3562 21.8907 14.0205 21.6724 13.8191C21.5968 13.7267 21.5128 13.6428 21.412 13.5757C21.412 13.5701 21.4092 13.5673 21.4036 13.5673C21.37 13.5393 21.3364 13.5085 21.3029 13.4749C21.2245 13.4078 21.1461 13.3406 21.0677 13.2735C20.9389 13.1672 20.8102 13.0637 20.6814 12.9629C20.6646 12.9545 20.6562 12.9461 20.6394 12.9378C20.6842 12.9042 20.7318 12.8706 20.7822 12.837C20.8494 12.7867 20.9165 12.7391 20.9837 12.6943C21.0341 12.6552 21.0873 12.6188 21.1433 12.5852C21.3336 12.4621 21.524 12.3474 21.7144 12.2411C21.7759 12.2075 21.8347 12.174 21.8907 12.1404L25.2499 13.8023Z" fill="#C2FBF3"/>
</g>
<g style="mix-blend-mode:multiply">
<path d="M18.653 27.6345C18.653 27.6345 20.1059 29.095 20.6434 29.4727C20.6434 29.4727 19.6356 30.2113 18.9134 30.4967L18.1407 27.9367L18.653 27.6345Z" fill="url(#paint27_linear_970_14196)"/>
</g>
<path d="M15.088 23.8912L18.0105 23.1274L15.9782 20.9871C15.9782 20.9871 14.4497 22.4391 14.2146 22.9763L15.088 23.8912Z" fill="url(#paint28_linear_970_14196)"/>
<path d="M14.2086 19.0145C14.2086 19.0145 12.5373 20.668 12.3694 20.9954C12.3694 20.9954 11.6472 20.0637 11.2944 19.1404L13.8726 18.427C13.8726 18.427 14.0574 18.8467 14.2086 19.0145Z" fill="url(#paint29_linear_970_14196)"/>
<path d="M26.1326 18.1418L23.1345 18.9308L25.318 21.0292C25.318 21.0292 26.6869 19.6862 27.0648 19.0315L26.1326 18.1418Z" fill="url(#paint30_linear_970_14196)"/>
<path d="M27.087 23.002C27.087 23.002 28.6827 21.3653 28.9094 21.0044C28.9094 21.0044 29.6484 21.9529 29.9928 22.8761L27.423 23.5896C27.423 23.5896 27.2214 23.2287 27.087 23.002Z" fill="url(#paint31_linear_970_14196)"/>
<path d="M66.9825 25.5108C66.5755 25.5108 66.063 25.5108 65.445 25.5108C64.842 25.5108 64.1788 25.5108 63.4553 25.5108C62.7317 25.5108 61.9856 25.5108 61.2168 25.5108C60.4481 25.5108 59.717 25.5184 59.0236 25.5335C58.3302 25.5335 57.6971 25.541 57.1243 25.5561C56.5515 25.5561 56.1069 25.5561 55.7903 25.5561L54.9537 27.3197C54.592 28.0432 54.283 28.6763 54.0267 29.2189C53.7704 29.7465 53.5594 30.2138 53.3936 30.6208C53.2278 31.0278 53.1072 31.382 53.0318 31.6835C52.9565 31.9699 52.9188 32.2412 52.9188 32.4974C52.9188 32.6633 52.9263 32.7914 52.9414 32.8818C52.9565 32.9572 52.9791 33.0175 53.0092 33.0627V33.1532H49.0298V33.0627C49.1353 32.9572 49.3011 32.7311 49.5272 32.3844C49.7533 32.0226 50.0096 31.5855 50.296 31.073C50.5974 30.5605 50.914 29.9802 51.2456 29.332C51.5923 28.6838 51.9315 28.0131 52.2631 27.3197L61.4882 8.28174H63.1839L72.2281 27.3197C72.5748 28.0432 72.9215 28.7366 73.2682 29.3998C73.63 30.0631 73.9616 30.6585 74.2631 31.186C74.5645 31.6986 74.8283 32.1281 75.0544 32.4748C75.2805 32.8065 75.4313 33.0024 75.5066 33.0627V33.1532H69.7184C69.7485 33.0326 69.7636 32.927 69.7636 32.8366C69.7636 32.7311 69.7636 32.618 69.7636 32.4974C69.7636 32.1658 69.6882 31.7664 69.5375 31.2991C69.4018 30.8318 69.2285 30.357 69.0174 29.8746C68.8215 29.3772 68.6105 28.9024 68.3843 28.4502C68.1733 27.998 68 27.6211 67.8643 27.3197L66.9825 25.5108ZM56.6721 23.7472H58.0514C58.6845 23.7472 59.3552 23.7472 60.0637 23.7472C60.7872 23.7322 61.5108 23.7246 62.2343 23.7246C62.9578 23.7246 63.6588 23.7246 64.3371 23.7246C65.0154 23.7096 65.6259 23.702 66.1685 23.702L61.4882 13.7082L56.6721 23.7472Z" fill="white"/>
<path d="M96.6474 18.0494C96.6474 16.7079 96.6399 15.5397 96.6248 14.5448C96.6098 13.55 96.5796 12.6908 96.5344 11.9672C96.4892 11.2437 96.4364 10.6408 96.3761 10.1584C96.3158 9.66097 96.2405 9.25398 96.15 8.93744V8.847H99.4737V8.93744C99.3833 9.25398 99.3079 9.66097 99.2476 10.1584C99.1873 10.6558 99.1346 11.2738 99.0894 12.0125C99.0441 12.736 99.014 13.6027 98.9989 14.6126C98.9839 15.6075 98.9763 16.7832 98.9763 18.1399V24.629C98.9763 26.257 98.7201 27.6438 98.2076 28.7893C97.7101 29.9349 97.0167 30.877 96.1274 31.6156C95.2381 32.3392 94.1754 32.8668 92.9393 33.1984C91.7184 33.5451 90.3768 33.7184 88.9147 33.7184C87.4374 33.7184 86.0657 33.5526 84.7995 33.221C83.5334 32.9044 82.433 32.3919 81.4984 31.6835C80.5789 30.975 79.8479 30.0555 79.3052 28.925C78.7776 27.7945 78.5138 26.4228 78.5138 24.8099V18.1399C78.5138 16.7832 78.4988 15.6075 78.4686 14.6126C78.4385 13.6027 78.3933 12.736 78.333 12.0125C78.2727 11.2738 78.2048 10.6558 78.1295 10.1584C78.0541 9.66097 77.9637 9.25398 77.8581 8.93744V8.847H83.0812V8.93744C82.9756 9.25398 82.8852 9.66097 82.8098 10.1584C82.7345 10.6408 82.6666 11.2437 82.6063 11.9672C82.5611 12.6908 82.5234 13.55 82.4933 14.5448C82.4631 15.5397 82.4481 16.7079 82.4481 18.0494V24.8099C82.4481 26.1515 82.6516 27.2594 83.0585 28.1336C83.4655 28.9928 84.0006 29.6787 84.6639 30.1912C85.3271 30.7037 86.0808 31.0655 86.9249 31.2765C87.7691 31.4724 88.6358 31.5704 89.5251 31.5704C90.4296 31.5704 91.3038 31.4724 92.148 31.2765C93.0072 31.0655 93.7684 30.7037 94.4316 30.1912C95.1099 29.6787 95.645 28.9928 96.037 28.1336C96.4439 27.2594 96.6474 26.1515 96.6474 24.8099V18.0494Z" fill="white"/>
<path d="M109.942 21.3505C110.244 21.3958 110.545 21.4334 110.847 21.4636C111.163 21.4787 111.465 21.4862 111.751 21.4862C113.635 21.4862 115.06 20.9812 116.025 19.9713C117.004 18.9614 117.494 17.4465 117.494 15.4266C117.494 13.7685 117.102 12.4571 116.319 11.4924C115.55 10.5277 114.412 10.0453 112.904 10.0453C112.422 10.0453 111.992 10.068 111.616 10.1132C111.254 10.1433 110.945 10.181 110.689 10.2262C110.402 10.2865 110.153 10.3468 109.942 10.4071V21.3505ZM113.402 22.8202C113.1 22.8654 112.799 22.8956 112.497 22.9107C112.211 22.9107 111.917 22.9107 111.616 22.9107C111.374 22.9107 111.111 22.9031 110.824 22.888C110.538 22.873 110.244 22.8504 109.942 22.8202V23.9281C109.942 25.2697 109.957 26.4454 109.988 27.4553C110.018 28.4502 110.055 29.3094 110.101 30.0329C110.161 30.7565 110.229 31.3669 110.304 31.8644C110.38 32.3467 110.47 32.7462 110.575 33.0627V33.1532H105.352V33.0627C105.458 32.7462 105.548 32.3392 105.624 31.8417C105.714 31.3443 105.782 30.7338 105.827 30.0103C105.888 29.2717 105.933 28.3974 105.963 27.3875C105.993 26.3776 106.008 25.1943 106.008 23.8377V18.1399C106.008 16.7832 105.993 15.6075 105.963 14.6126C105.933 13.6027 105.888 12.736 105.827 12.0125C105.782 11.2738 105.714 10.6558 105.624 10.1584C105.548 9.66097 105.458 9.25398 105.352 8.93744V8.847C105.594 8.86207 105.85 8.87714 106.121 8.89222C106.347 8.90729 106.596 8.92237 106.867 8.93744C107.154 8.93744 107.44 8.93744 107.727 8.93744C108.209 8.93744 108.925 8.89222 109.875 8.80178C110.824 8.71134 111.94 8.66611 113.221 8.66611C114.517 8.66611 115.693 8.82439 116.748 9.14093C117.818 9.45748 118.73 9.90969 119.484 10.4976C120.253 11.0854 120.841 11.8014 121.248 12.6455C121.67 13.4897 121.881 14.4318 121.881 15.4718C121.881 16.2858 121.768 17.032 121.542 17.7103C121.315 18.3735 120.999 18.9764 120.592 19.5191C120.185 20.0467 119.703 20.514 119.145 20.9209C118.587 21.3279 117.969 21.6822 117.291 21.9836L122.016 28.6537C122.423 29.1963 122.83 29.7164 123.237 30.2138C123.659 30.7112 124.059 31.1559 124.436 31.5478C124.813 31.9397 125.167 32.2713 125.498 32.5427C125.83 32.7989 126.109 32.9723 126.335 33.0627V33.1532H120.411C120.411 33.0175 120.313 32.7838 120.117 32.4522C119.936 32.1055 119.718 31.7513 119.461 31.3895C119.22 31.0127 118.972 30.6509 118.715 30.3042C118.474 29.9576 118.293 29.7013 118.173 29.5355L113.402 22.8202Z" fill="white"/>
<path d="M143.225 25.5108C142.818 25.5108 142.306 25.5108 141.688 25.5108C141.085 25.5108 140.421 25.5108 139.698 25.5108C138.974 25.5108 138.228 25.5108 137.459 25.5108C136.691 25.5108 135.96 25.5184 135.266 25.5335C134.573 25.5335 133.94 25.541 133.367 25.5561C132.794 25.5561 132.349 25.5561 132.033 25.5561L131.196 27.3197C130.834 28.0432 130.525 28.6763 130.269 29.2189C130.013 29.7465 129.802 30.2138 129.636 30.6208C129.47 31.0278 129.35 31.382 129.274 31.6835C129.199 31.9699 129.161 32.2412 129.161 32.4974C129.161 32.6633 129.169 32.7914 129.184 32.8818C129.199 32.9572 129.222 33.0175 129.252 33.0627V33.1532H125.272V33.0627C125.378 32.9572 125.544 32.7311 125.77 32.3844C125.996 32.0226 126.252 31.5855 126.538 31.073C126.84 30.5605 127.157 29.9802 127.488 29.332C127.835 28.6838 128.174 28.0131 128.506 27.3197L137.731 8.28174H139.426L148.471 27.3197C148.817 28.0432 149.164 28.7366 149.511 29.3998C149.872 30.0631 150.204 30.6585 150.506 31.186C150.807 31.6986 151.071 32.1281 151.297 32.4748C151.523 32.8065 151.674 33.0024 151.749 33.0627V33.1532H145.961C145.991 33.0326 146.006 32.927 146.006 32.8366C146.006 32.7311 146.006 32.618 146.006 32.4974C146.006 32.1658 145.931 31.7664 145.78 31.2991C145.644 30.8318 145.471 30.357 145.26 29.8746C145.064 29.3772 144.853 28.9024 144.627 28.4502C144.416 27.998 144.242 27.6211 144.107 27.3197L143.225 25.5108ZM132.915 23.7472H134.294C134.927 23.7472 135.598 23.7472 136.306 23.7472C137.03 23.7322 137.753 23.7246 138.477 23.7246C139.2 23.7246 139.901 23.7246 140.58 23.7246C141.258 23.7096 141.868 23.702 142.411 23.702L137.731 13.7082L132.915 23.7472Z" fill="white"/>
<defs>
<linearGradient id="paint0_linear_970_14196" x1="20.468" y1="22.0959" x2="20.468" y2="0.290143" gradientUnits="userSpaceOnUse">
<stop stop-color="#00FFF7"/>
<stop offset="1" stop-color="#D4F7AE"/>
</linearGradient>
<linearGradient id="paint1_linear_970_14196" x1="27.9121" y1="11.0769" x2="27.9121" y2="11.032" gradientUnits="userSpaceOnUse">
<stop stop-color="#00FFF7"/>
<stop offset="1" stop-color="#D4F7AE"/>
</linearGradient>
<linearGradient id="paint2_linear_970_14196" x1="28.7844" y1="13.8967" x2="28.7844" y2="13.7242" gradientUnits="userSpaceOnUse">
<stop stop-color="#00FFF7"/>
<stop offset="1" stop-color="#D4F7AE"/>
</linearGradient>
<linearGradient id="paint3_linear_970_14196" x1="20.1745" y1="31.5797" x2="20.1745" y2="27.5741" gradientUnits="userSpaceOnUse">
<stop stop-color="#00FFF7"/>
<stop offset="1" stop-color="#D4F7AE"/>
</linearGradient>
<linearGradient id="paint4_linear_970_14196" x1="19.8783" y1="18.1293" x2="19.8783" y2="15.2194" gradientUnits="userSpaceOnUse">
<stop stop-color="#00FFF7"/>
<stop offset="1" stop-color="#D4F7AE"/>
</linearGradient>
<linearGradient id="paint5_linear_970_14196" x1="11.8213" y1="28.735" x2="11.8213" y2="27.7291" gradientUnits="userSpaceOnUse">
<stop stop-color="#00FFF7"/>
<stop offset="1" stop-color="#D4F7AE"/>
</linearGradient>
<linearGradient id="paint6_linear_970_14196" x1="10.4733" y1="32.4623" x2="10.4733" y2="11.1595" gradientUnits="userSpaceOnUse">
<stop stop-color="#00FFF7"/>
<stop offset="1" stop-color="#D4F7AE"/>
</linearGradient>
<linearGradient id="paint7_linear_970_14196" x1="28.7844" y1="21.3969" x2="28.7844" y2="13.6104" gradientUnits="userSpaceOnUse">
<stop stop-color="#00FFF7"/>
<stop offset="1" stop-color="#D4F7AE"/>
</linearGradient>
<linearGradient id="paint8_linear_970_14196" x1="30.8618" y1="32.0448" x2="30.8618" y2="10.7061" gradientUnits="userSpaceOnUse">
<stop stop-color="#00FFF7"/>
<stop offset="1" stop-color="#D4F7AE"/>
</linearGradient>
<linearGradient id="paint9_linear_970_14196" x1="27.9121" y1="11.0769" x2="27.9121" y2="11.032" gradientUnits="userSpaceOnUse">
<stop stop-color="#00FFF7"/>
<stop offset="1" stop-color="#D4F7AE"/>
</linearGradient>
<linearGradient id="paint10_linear_970_14196" x1="28.1045" y1="28.6907" x2="28.1045" y2="28.6067" gradientUnits="userSpaceOnUse">
<stop stop-color="#00FFF7"/>
<stop offset="1" stop-color="#D4F7AE"/>
</linearGradient>
<linearGradient id="paint11_linear_970_14196" x1="19.7734" y1="28.3167" x2="19.7734" y2="14.8003" gradientUnits="userSpaceOnUse">
<stop stop-color="#00FFF7"/>
<stop offset="1" stop-color="#D4F7AE"/>
</linearGradient>
<linearGradient id="paint12_linear_970_14196" x1="15.5726" y1="29.4348" x2="15.5726" y2="14.5534" gradientUnits="userSpaceOnUse">
<stop stop-color="#00FFF7"/>
<stop offset="1" stop-color="#D4F7AE"/>
</linearGradient>
<linearGradient id="paint13_linear_970_14196" x1="20.9161" y1="42.4841" x2="20.9161" y2="20.6783" gradientUnits="userSpaceOnUse">
<stop stop-color="#00FFF7"/>
<stop offset="1" stop-color="#D4F7AE"/>
</linearGradient>
<linearGradient id="paint14_linear_970_14196" x1="28.7844" y1="13.8967" x2="28.7844" y2="13.7242" gradientUnits="userSpaceOnUse">
<stop stop-color="#00FFF7"/>
<stop offset="1" stop-color="#D4F7AE"/>
</linearGradient>
<linearGradient id="paint15_linear_970_14196" x1="25.7427" y1="28.3769" x2="25.7427" y2="13.5044" gradientUnits="userSpaceOnUse">
<stop stop-color="#00FFF7"/>
<stop offset="1" stop-color="#D4F7AE"/>
</linearGradient>
<linearGradient id="paint16_linear_970_14196" x1="10.4485" y1="14.6629" x2="10.4485" y2="14.471" gradientUnits="userSpaceOnUse">
<stop stop-color="#00FFF7"/>
<stop offset="1" stop-color="#D4F7AE"/>
</linearGradient>
<linearGradient id="paint17_linear_970_14196" x1="20.1206" y1="21.5615" x2="20.1206" y2="10.8652" gradientUnits="userSpaceOnUse">
<stop stop-color="#00FFF7"/>
<stop offset="1" stop-color="#D4F7AE"/>
</linearGradient>
<linearGradient id="paint18_linear_970_14196" x1="21.1741" y1="31.9481" x2="21.1741" y2="20.8207" gradientUnits="userSpaceOnUse">
<stop stop-color="#00FFF7"/>
<stop offset="1" stop-color="#D4F7AE"/>
</linearGradient>
<linearGradient id="paint19_linear_970_14196" x1="28.7642" y1="11.6157" x2="28.7642" y2="8.88544" gradientUnits="userSpaceOnUse">
<stop stop-color="#00FFF7"/>
<stop offset="1" stop-color="#D4F7AE"/>
</linearGradient>
<linearGradient id="paint20_linear_970_14196" x1="9.50927" y1="16.5555" x2="9.50927" y2="11.4005" gradientUnits="userSpaceOnUse">
<stop stop-color="#00FFF7"/>
<stop offset="1" stop-color="#D4F7AE"/>
</linearGradient>
<linearGradient id="paint21_linear_970_14196" x1="31.279" y1="31.1824" x2="31.279" y2="26.9075" gradientUnits="userSpaceOnUse">
<stop stop-color="#00FFF7"/>
<stop offset="1" stop-color="#D4F7AE"/>
</linearGradient>
<linearGradient id="paint22_linear_970_14196" x1="11.8213" y1="28.8337" x2="11.8213" y2="25.87" gradientUnits="userSpaceOnUse">
<stop stop-color="#00FFF7"/>
<stop offset="1" stop-color="#D4F7AE"/>
</linearGradient>
<linearGradient id="paint23_linear_970_14196" x1="13.3461" y1="33.5857" x2="13.3461" y2="30.9273" gradientUnits="userSpaceOnUse">
<stop stop-color="#00FFF7"/>
<stop offset="1" stop-color="#D4F7AE"/>
</linearGradient>
<linearGradient id="paint24_linear_970_14196" x1="29.4417" y1="16.5135" x2="29.4417" y2="13.6845" gradientUnits="userSpaceOnUse">
<stop stop-color="#00FFF7"/>
<stop offset="1" stop-color="#D4F7AE"/>
</linearGradient>
<linearGradient id="paint25_linear_970_14196" x1="21.9872" y1="27.8049" x2="21.9872" y2="24.2753" gradientUnits="userSpaceOnUse">
<stop stop-color="#00FFF7"/>
<stop offset="1" stop-color="#D4F7AE"/>
</linearGradient>
<linearGradient id="paint26_linear_970_14196" x1="27.2794" y1="31.5327" x2="27.2794" y2="28.6408" gradientUnits="userSpaceOnUse">
<stop stop-color="#00FFF7"/>
<stop offset="1" stop-color="#D4F7AE"/>
</linearGradient>
<linearGradient id="paint27_linear_970_14196" x1="19.3954" y1="30.6512" x2="19.3954" y2="27.5887" gradientUnits="userSpaceOnUse">
<stop stop-color="#00FFF7"/>
<stop offset="1" stop-color="#D4F7AE"/>
</linearGradient>
<linearGradient id="paint28_linear_970_14196" x1="16.1176" y1="24.048" x2="16.1176" y2="20.9406" gradientUnits="userSpaceOnUse">
<stop stop-color="#00FFF7"/>
<stop offset="1" stop-color="#D4F7AE"/>
</linearGradient>
<linearGradient id="paint29_linear_970_14196" x1="12.7554" y1="21.1341" x2="12.7554" y2="18.3859" gradientUnits="userSpaceOnUse">
<stop stop-color="#00FFF7"/>
<stop offset="1" stop-color="#D4F7AE"/>
</linearGradient>
<linearGradient id="paint30_linear_970_14196" x1="25.1049" y1="21.1851" x2="25.1049" y2="18.0956" gradientUnits="userSpaceOnUse">
<stop stop-color="#00FFF7"/>
<stop offset="1" stop-color="#D4F7AE"/>
</linearGradient>
<linearGradient id="paint31_linear_970_14196" x1="28.5438" y1="23.7292" x2="28.5438" y2="20.963" gradientUnits="userSpaceOnUse">
<stop stop-color="#00FFF7"/>
<stop offset="1" stop-color="#D4F7AE"/>
</linearGradient>
</defs>
</svg>
