  <svg id="a" xmlns="http://www.w3.org/2000/svg" viewBox="0 0 152 42">
            <defs>
                <style>
                    .b { fill: #fff; }
                    .c { fill: #ff7a0b; }
                </style>
            </defs>
            <path class="b" d="M296.74,28.06c-.55-1.93,2.26-5.67,2.26-5.67h43.7l4.74-5.19h-46.07s3.59-5.74,8.04-6.76c5.86-1.34,8.85-1.24,8.85-1.24h36.38l6.29-6.52h-58.96s-5.98-.19-13.56,1.78c-8.81,2.3-16.26,8.35-18.59,10.51-10.56,9.78-8.11,16.19-8.11,16.19l-51.45-.19s-3-.6-2.91-4.15c.08-3.25,1.14-3.85,1.14-3.85h43.99l5.48-5.48h-47.04s.81-2.07,3.48-4.44c2.67-2.37,8.44-3.85,8.44-3.85h42.11l6.3-6.3h-58.93c-8.3,0-15.54,1.87-18.93,3.37-4.41,1.95-8.02,4.75-10,6.44-9.67,8.28-10.56,18-10.56,18h-13.77l-1.74-7.64h7.37s8.89-2.44,10.36-10.58c1.77-9.81-10.17-9.82-10.17-9.82h-60.11l-20.15,27.7H40.63s-7.95,.69-6.83-4.94c.47-2.36,3.24-4.92,6.95-9.15,6.4-7.31,17.52-6.93,17.52-6.93l33.98-.08,5.39-6.83-58.94,.24s-15.17,.96-23.61,7.04C6.63,15.8,1.37,25.21,1.37,25.21c0,0-1.96,4.51-1.18,6.66,.78,2.15,2.07,3.71,7.55,4.01,5.48,.3,105.19,0,105.19,0l8.56-12.34h4.18l2.3,12.48,230.89,.82,6.36-6.08-63.26-.51s-4.61-.02-5.22-2.19Zm-149.12-10.73h-21.59l5.68-7.91h18.92s4.74-.14,4.74,2.97-7.76,4.94-7.76,4.94Z"/>
            <path class="c" d="M455.79,8.67c0-6.61-17.78-8.67-37-8.67-42.11,0-47.03,6.73-48,11.67-1.22,6.22,7.22,6.67,7.22,6.67,0,0-21.82,4.36-22.56,15.33-.67,10,20.89,9.4,42.44,9.89,44.11,1,50.27-12.36,49.22-18-1.22-6.6-10.89-7.33-10.89-7.33,0,0,19.56-.44,19.56-9.56Zm-44.38-1.86c2.11-1.57,12.41-2.47,11.14,1.34-1.72,5.18-5.07,8.19-7.26,8.54-2.77,.45-8.81,.76-9.59-1.01s3.62-7.33,5.7-8.87Zm-10.4,16.41c1.92-1.8,11.95-.86,11.14,1.34-1.88,5.12-6.92,10.02-9.08,11.69-1.19,.92-10.01,.74-11.22-.56-1.33-1.42,7.22-10.66,9.16-12.48Z"/>
        </svg>