<svg width="152" height="42" viewBox="0 0 175 42" fill="none" xmlns="http://www.w3.org/2000/svg">
<path fill-rule="evenodd" clip-rule="evenodd" d="M46.1296 12.0708C46.1296 14.3863 46.2497 15.517 47.312 17.6455C47.9166 18.8325 48.7217 19.906 49.6919 20.8188C49.8084 20.9263 49.9307 21.0274 50.0582 21.1216C50.668 21.669 51.341 22.1415 52.063 22.5291C52.2454 22.6217 52.3516 22.6983 52.4905 22.7702C55.5117 24.3398 59.5553 24.3376 62.615 22.8643C63.3057 22.5573 63.9667 22.1877 64.5899 21.76C64.8749 21.5505 66.2058 20.6061 66.2058 20.2994V11.6024H56.9031V14.8797H62.3239V18.6258C62.3239 18.8798 61.8198 19.0929 61.5085 19.2827C61.1744 19.4777 60.8231 19.6417 60.4591 19.7725C57.9099 20.6959 55.4611 20.459 53.2503 18.8652C52.2803 18.1362 51.4943 17.1905 50.9548 16.1035C50.4154 15.0166 50.1376 13.8186 50.1437 12.6052C50.1699 10.6256 50.9682 8.73457 52.3685 7.33509C53.7688 5.93561 55.6603 5.13836 57.6398 5.11327C59.2983 5.16134 60.9065 5.69261 62.2673 6.64186C62.6611 6.93494 63.0174 7.27532 63.3281 7.65534C63.8782 7.28735 65.8022 5.20304 66.1388 5.11327C66.1135 4.8087 65.8118 4.59389 65.4976 4.3488L63.818 3.15115C62.3407 2.33182 60.1106 1.50073 58.1745 1.50073C56.0475 1.50073 54.5727 1.64109 52.6857 2.56943C51.5275 3.13694 50.4616 3.87615 49.5242 4.76203C48.1066 6.14674 47.0672 7.87142 46.5051 9.77171C46.2834 10.5192 46.1566 11.2917 46.1278 12.0708H46.1296Z" fill="#0F1014"/>
<path fill-rule="evenodd" clip-rule="evenodd" d="M123.962 15.4826C123.962 12.7214 125.66 10.1975 128.178 10.1975C129.768 10.1975 130.864 10.4401 131.942 11.6531C133.921 13.8795 133.671 18.6178 130.632 20.1442C127.496 21.7195 123.962 19.4781 123.962 15.4826ZM120.079 23.5772H123.962V21.1021C124.033 21.1848 124.098 21.2571 124.178 21.3536L124.947 22.1901C126.853 24.1055 130.382 24.4845 132.797 23.2445C134.514 22.3551 135.826 20.8434 136.466 19.0185C137.284 16.7031 137.291 14.1785 136.487 11.8583C136.389 11.5936 136.309 11.413 136.218 11.1904C135.916 10.5425 135.536 9.93382 135.087 9.37785C134.944 9.2179 134.788 9.05724 134.629 8.89872C134.471 8.74019 134.309 8.58417 134.149 8.44132C133.787 8.14534 133.397 7.88592 132.984 7.66687C130.842 6.39156 127.569 6.61278 125.481 8.17058C125.251 8.34157 125.153 8.44524 124.926 8.61979C124.639 8.84137 124.147 9.53744 123.961 9.66212V1.50122H120.078V23.5776L120.079 23.5772Z" fill="#0F1014"/>
<path fill-rule="evenodd" clip-rule="evenodd" d="M146.781 21.1019H146.313C144.898 21.1019 143.435 20.1597 143.435 18.7604C143.396 18.3482 143.475 17.9334 143.662 17.5643C143.85 17.1952 144.139 16.887 144.495 16.6757C146.29 15.4357 148.978 16.1809 150.864 16.6202C150.864 18.4672 151.08 19.2 149.285 20.3962C148.52 20.8319 147.661 21.0749 146.781 21.1041L146.781 21.1019ZM141.092 8.52518L141.74 9.88527C141.98 10.3655 142.19 10.8136 142.431 11.2678C143.432 10.7381 145.352 10.0637 146.447 10.0637C147.907 10.0637 148.896 10.0976 149.944 11.1827C150.595 11.8556 150.863 12.8455 150.863 14.1444C150.212 13.993 149.806 13.7579 148.784 13.5466C146.255 13.024 143.752 13.1872 141.713 14.6976C137.79 17.6052 139.49 23.9785 145.71 23.9785C147.209 23.9576 148.665 23.4737 149.878 22.5931C150.263 22.306 150.531 21.9252 150.862 21.7025V23.5759H154.61V13.2755C154.583 11.9688 154.183 10.697 153.459 9.60919C152.319 7.90355 150.153 6.85339 148.052 6.85339C146.655 6.79085 145.259 6.98178 143.93 7.41694C142.99 7.68519 141.238 8.49098 141.092 8.52518Z" fill="#0F1014"/>
<path fill-rule="evenodd" clip-rule="evenodd" d="M90.9012 20.6332C87.0183 20.6332 84.7637 16.679 86.1776 13.3019C86.6267 12.2221 87.426 11.3246 88.4468 10.7538C89.1318 10.3841 89.8973 10.1886 90.6757 10.1846C91.4541 10.1806 92.2215 10.3683 92.9103 10.731C95.8485 12.2628 96.5553 16.6088 94.264 18.9788C93.4187 19.8534 92.2595 20.6332 90.8995 20.6332H90.9012ZM90.7006 23.9782C98.0967 23.9782 102.51 14.9979 96.9743 9.47955C96.2592 8.76036 95.4282 8.16656 94.5162 7.72298C93.3422 7.15363 92.0558 6.85411 90.751 6.84635C89.4462 6.83858 88.1562 7.12277 86.9755 7.6781C86.0537 8.13848 85.2056 8.73363 84.4591 9.44394C83.7421 10.1885 83.1524 11.0458 82.7136 11.9817C82.4719 12.4896 82.2867 13.0225 82.1614 13.5709C82.0895 13.8717 82.0372 14.177 82.0047 14.4846C81.956 14.8361 81.9322 15.1906 81.9334 15.5455C82.0816 17.2518 82.3901 18.3789 83.1635 19.671C83.5633 20.3227 84.0431 20.9219 84.5917 21.4546C86.2295 23.0463 88.4148 23.95 90.6985 23.98L90.7006 23.9782Z" fill="#0F1014"/>
<path fill-rule="evenodd" clip-rule="evenodd" d="M161.638 26.184C160.818 26.1902 160.011 25.9826 159.296 25.5817L158.707 27.6702C158.63 27.9506 158.553 28.1333 158.493 28.3916C161.177 29.8112 164.442 29.6384 166.42 27.0166C166.732 26.6017 167.006 26.1592 167.239 25.6946C167.72 24.7399 168.074 23.6826 168.486 22.6577L173.362 10.3389C173.54 9.89609 174.533 7.4698 174.557 7.18481H170.604C170.495 7.41833 170.399 7.65746 170.316 7.90119L166.682 17.783C166.546 18.1364 166.275 19.13 166.052 19.2935L163.701 13.2137C163.455 12.5322 161.576 7.5984 161.299 7.18481H157.284C157.409 7.61751 157.569 8.03954 157.761 8.44694L159.349 12.2116C160.044 13.8959 160.751 15.5245 161.442 17.2106L164.058 23.4332C164.207 23.7937 164.033 23.9986 163.709 24.6444C163.314 25.4313 162.86 26.183 161.634 26.183L161.638 26.184Z" fill="#0F1014"/>
<path fill-rule="evenodd" clip-rule="evenodd" d="M110.643 23.9792C111.924 23.9666 113.188 23.6777 114.348 23.132C114.849 22.8956 115.325 22.6092 115.769 22.2771C116.069 22.0519 116.849 21.4912 116.935 21.1681C116.893 21.1104 116.43 20.6926 116.343 20.6231C116.087 20.419 115.953 20.2726 115.692 20.0695L115.044 19.5131C114.842 19.3115 114.624 19.1267 114.392 18.9606C114.076 19.1718 113.758 19.6449 112.899 20.0766C112.239 20.4318 111.503 20.6233 110.753 20.6349C110.004 20.6465 109.263 20.4779 108.592 20.1433C105.673 18.6827 104.752 14.4721 107.081 11.8531C107.46 11.4209 107.908 11.0546 108.406 10.769C109.086 10.3922 109.849 10.1916 110.625 10.1853C111.402 10.1791 112.168 10.3675 112.854 10.7334C113.39 10.9919 113.868 11.3563 114.259 11.8046C114.514 11.6336 116.621 9.66294 116.868 9.59597C116.714 9.01852 114.926 7.95731 114.46 7.72255C111.994 6.485 109.361 6.62215 106.877 7.7026C106.757 7.75633 106.642 7.82071 106.534 7.89497C106.391 7.98047 106.333 8.00184 106.189 8.08556C105.087 8.73269 104.141 9.61355 103.416 10.6661C102.702 11.7444 102.006 13.2242 101.946 14.549C101.904 14.8775 101.884 15.2083 101.885 15.5393C102.042 16.9593 102.103 17.6789 102.748 18.9634C102.97 19.4366 103.235 19.8881 103.54 20.3121C104.357 21.4348 105.424 22.3513 106.658 22.9883C107.891 23.6253 109.257 23.9654 110.645 23.9813L110.643 23.9792Z" fill="#0F1014"/>
<path fill-rule="evenodd" clip-rule="evenodd" d="M74.1708 10.2643V7.18721H70.4898C70.336 7.18721 70.2889 7.23387 70.2889 7.38812V23.5774H74.1718V15.4842C74.1342 14.7029 74.283 13.9239 74.6061 13.2116C74.9291 12.4992 75.4171 11.874 76.0296 11.3875C77.1222 10.4866 78.51 10.1995 79.9937 10.1995V6.85449C77.7046 6.85449 75.8166 7.79352 74.6122 9.56933L74.1708 10.2643Z" fill="#0F1014"/>
<path fill-rule="evenodd" clip-rule="evenodd" d="M0.000356232 27.7008H20.7929C25.5589 27.7008 29.1643 28.2266 32.877 25.1057L33.3529 24.6938C33.5077 24.5713 33.6532 24.4374 33.7882 24.2934C35.7735 22.3299 36.6594 19.5132 37.7495 16.9195L39.759 11.9817H33.0704C32.9971 12.2273 32.9048 12.4668 32.7943 12.6981L31.8681 14.9068C31.4232 15.9081 30.471 18.4651 29.906 19.2111C29.619 19.6144 29.2777 19.9762 28.8918 20.2862C28.0259 20.9754 26.9662 21.3767 25.861 21.434C24.5636 21.5024 23.0546 21.434 21.7333 21.434H9.19434L9.67204 20.1872C9.83555 19.7779 10.0158 19.3283 10.1793 18.9186L13.1717 11.4132C13.8179 9.79733 13.9048 9.24018 15.0576 8.07602C15.9752 7.14804 17.4051 6.65109 18.9109 6.65323C23.8344 6.65929 28.9039 6.60514 33.8014 6.65323C34.3176 6.65822 34.1712 6.67425 34.5021 6.46585C34.885 6.22469 35.2146 6.02199 35.5989 5.78652C38.1 4.25473 40.7005 2.56655 43.1749 1.08676C43.5481 0.87676 43.907 0.642324 44.2493 0.384988H21.9424C20.4794 0.384988 18.876 0.316591 17.5002 0.435929C15.0448 0.658678 12.7337 1.69415 10.9331 3.3784C10.8049 3.50237 10.7454 3.52089 10.6178 3.63773C10.4098 3.82867 10.3008 4.00679 10.0956 4.21234C9.5679 4.81321 9.09909 5.46334 8.69561 6.1538L0.313484 26.8651C0.189415 27.1358 0.0846586 27.4149 0 27.7004L0.000356232 27.7008Z" fill="#FE5B00"/>
</svg>
